<?xml version="1.0" encoding="UTF-8" standalone="no"?>
<!-- Created with Inkscape (http://www.inkscape.org/) -->

<svg
   width="64mm"
   height="64mm"
   viewBox="0 0 64 64"
   version="1.1"
   id="svg5"
   sodipodi:docname="image.svg"
   inkscape:version="1.1.1 (3bf5ae0d25, 2021-09-20)"
   xmlns:inkscape="http://www.inkscape.org/namespaces/inkscape"
   xmlns:sodipodi="http://sodipodi.sourceforge.net/DTD/sodipodi-0.dtd"
   xmlns="http://www.w3.org/2000/svg"
   xmlns:svg="http://www.w3.org/2000/svg">
  <sodipodi:namedview
     id="namedview7"
     pagecolor="#ffffff"
     bordercolor="#666666"
     borderopacity="1.0"
     inkscape:pageshadow="2"
     inkscape:pageopacity="0.0"
     inkscape:pagecheckerboard="0"
     inkscape:document-units="mm"
     showgrid="false"
     width="64mm"
     inkscape:zoom="3.0075196"
     inkscape:cx="116.54122"
     inkscape:cy="127.18121"
     inkscape:window-width="1852"
     inkscape:window-height="1016"
     inkscape:window-x="68"
     inkscape:window-y="27"
     inkscape:window-maximized="1"
     inkscape:current-layer="layer1" />
  <defs
     id="defs2">
    <inkscape:path-effect
       effect="fill_between_many"
       method="originald"
       linkedpaths="#path5710,0,1|"
       id="path-effect8778" />
  </defs>
  <g
     inkscape:label="Layer 1"
     inkscape:groupmode="layer"
     id="layer1">
    <rect
       style="fill:#72b7cd;fill-opacity:1;stroke-width:0.264583"
       id="rect31"
       width="47.723694"
       height="43.636749"
       x="8.1381531"
       y="10.181625"
       ry="0.80048364" />
    <circle
       style="fill:#ffbe00;fill-opacity:1;stroke-width:0.249818"
       id="path4896"
       cy="21.697803"
       cx="42.987488"
       r="5" />
    <path
       inkscape:original-d="M 0,0"
       inkscape:path-effect="#path-effect8778"
       d="M 11.304384,53.686083 25.176479,35.506775 c 0,0 1.720703,-2.817257 3.312432,0 1.504283,2.662484 7.806322,13.318683 7.806322,13.318683 -0.09435,0.08978 1.461634,2.600266 2.926953,0 1.244623,-2.208633 3.568893,-6.627999 3.568893,-6.627999 0,0 1.53462,-2.844699 2.943518,0 1.408899,2.844697 6.120236,11.488624 6.120236,11.488624 z"
       id="path8780" />
    <path
       style="fill:none;stroke:#000000;stroke-width:0.264583px;stroke-linecap:butt;stroke-linejoin:miter;stroke-opacity:1"
       d="M 11.304384,53.686083 25.176479,35.506775 c 0,0 1.720703,-2.817257 3.312432,0 1.504283,2.662484 7.806322,13.318683 7.806322,13.318683 -0.09435,0.08978 1.461634,2.600266 2.926953,0 1.244623,-2.208633 3.568893,-6.627999 3.568893,-6.627999 0,0 1.53462,-2.844699 2.943518,0 1.408899,2.844697 6.120236,11.488624 6.120236,11.488624 z"
       id="path5710"
       sodipodi:nodetypes="ccscscscc" />
  </g>
</svg>
